<svg width="57" height="21" viewBox="0 0 57 21" fill="none" xmlns="http://www.w3.org/2000/svg">
<g clip-path="url(#clip0_85_76)">
<path d="M13.3825 12.4126L11.8524 13.9426C11.8524 13.9426 11.8524 13.9427 11.8524 13.9427C11.8524 13.9427 11.8524 13.9427 11.8524 13.9427C11.2196 14.5755 10.1901 14.5755 9.55728 13.9427C9.25073 13.6362 9.08194 13.2286 9.08194 12.7951C9.08194 12.3617 9.25073 11.9542 9.55717 11.6477C9.5572 11.6476 9.55724 11.6476 9.55728 11.6475L11.0873 10.1175C11.2986 9.9062 11.2986 9.56365 11.0873 9.35242C10.8761 9.14119 10.5335 9.14119 10.3222 9.35242L8.7922 10.8825C8.79209 10.8826 8.79198 10.8828 8.79187 10.8829C8.28123 11.3937 8 12.0728 8 12.7951C8 13.5176 8.28134 14.1969 8.79223 14.7078C9.31957 15.2351 10.0122 15.4987 10.7049 15.4987C11.3975 15.4987 12.0902 15.2351 12.6174 14.7078V14.7077C12.6175 14.7077 12.6175 14.7077 12.6175 14.7077L14.1475 13.1776C14.3588 12.9664 14.3588 12.6238 14.1475 12.4126C13.9363 12.2013 13.5938 12.2013 13.3825 12.4126Z" fill="#0099FF"/>
<path d="M18 8.20485C18 7.48236 17.7186 6.80312 17.2077 6.29222C16.1531 5.23762 14.4371 5.23765 13.3825 6.29222C13.3825 6.29229 13.3824 6.29233 13.3824 6.2924L11.8524 7.82238C11.6411 8.03361 11.6411 8.37619 11.8524 8.58742C11.958 8.69309 12.0965 8.74589 12.2349 8.74589C12.3733 8.74589 12.5118 8.69305 12.6174 8.58742L14.1474 7.05744C14.1475 7.05737 14.1475 7.05734 14.1476 7.05726C14.7803 6.42454 15.8099 6.42451 16.4427 7.05726C16.7492 7.36381 16.9181 7.77138 16.9181 8.20485C16.9181 8.63827 16.7493 9.04577 16.4428 9.35232C16.4428 9.35235 16.4427 9.35239 16.4427 9.35243L14.9126 10.8825C14.7014 11.0937 14.7014 11.4363 14.9127 11.6476C15.0183 11.7532 15.1568 11.806 15.2952 11.806C15.4336 11.806 15.5721 11.7532 15.6777 11.6476L17.2078 10.1175C17.2079 10.1174 17.208 10.1172 17.2081 10.1171C17.7187 9.60629 18 8.92715 18 8.20485Z" fill="#0099FF"/>
<path d="M11.0874 12.4126C11.193 12.5182 11.3315 12.571 11.4699 12.571C11.6083 12.571 11.7468 12.5182 11.8524 12.4126L14.9126 9.35239C15.1239 9.14116 15.1239 8.79862 14.9126 8.58735C14.7014 8.37612 14.3588 8.37612 14.1476 8.58735L11.0874 11.6475C10.8761 11.8588 10.8761 12.2013 11.0874 12.4126Z" fill="#0099FF"/>
</g>
<path d="M28.2344 13.9268V15H24.1055V13.9268H28.2344ZM24.3311 5.04688V15H23.0732V5.04688H24.3311ZM30.9039 5.04688V15H29.6461V5.04688H30.9039ZM39.4593 5.04688V15H38.1946L34.2093 7.32324V15H32.9514V5.04688H34.2093L38.2151 12.7441V5.04688H39.4593ZM42.7509 5.04688V15H41.4931V5.04688H42.7509ZM47.7548 5.04688L44.33 9.68848L42.3271 12.1016L42.1015 10.6934L43.5712 8.76562L46.2509 5.04688H47.7548ZM46.5038 15L43.5712 10.1465L44.3163 9.10059L48.0009 15H46.5038Z" fill="#0099FF"/>
<rect x="0.25" y="0.25" width="56.5" height="20.5" rx="2.75" stroke="#0099FF" stroke-width="0.5"/>
<defs>
<clipPath id="clip0_85_76">
<rect width="10" height="10" fill="white" transform="translate(8 5.5)"/>
</clipPath>
</defs>
</svg>
