<svg width="20" height="20" viewBox="0 0 20 20" fill="none" xmlns="http://www.w3.org/2000/svg">
<path d="M19.3333 5.33334V14.6667C19.3333 15.1971 19.1226 15.7058 18.7475 16.0809C18.3725 16.456 17.8638 16.6667 17.3333 16.6667H2.66667C2.13623 16.6667 1.62753 16.456 1.25245 16.0809C0.877382 15.7058 0.666668 15.1971 0.666668 14.6667V5.33334C0.668831 5.10535 0.711728 4.87958 0.793335 4.66668L8.89333 10.0667C9.2213 10.2845 9.60627 10.4008 10 10.4008C10.3937 10.4008 10.7787 10.2845 11.1067 10.0667L19.2067 4.66668C19.2883 4.87958 19.3312 5.10535 19.3333 5.33334V5.33334ZM10.3667 8.95334L18.3667 3.62001C18.0547 3.43217 17.6975 3.33305 17.3333 3.33334H2.66667C2.30419 3.33628 1.94932 3.43767 1.64 3.62668L9.64 8.96001C9.74879 9.02932 9.87534 9.06558 10.0043 9.06439C10.1333 9.06321 10.2592 9.02463 10.3667 8.95334V8.95334Z" fill="#98A2B3"/>
</svg>
