<svg width="20" height="20" viewBox="0 0 20 20" fill="none" xmlns="http://www.w3.org/2000/svg">
<g clip-path="url(#clip0_85_56)">
<path d="M4.04482 5.52157C4.39409 2.37813 7.0511 0 10.2139 0V0C13.3767 0 16.0337 2.37813 16.383 5.52158L16.6627 8.0396C16.6876 8.26352 16.7001 8.37548 16.7154 8.48591C16.8536 9.47663 17.1763 10.4327 17.6668 11.3044C17.7215 11.4016 17.7795 11.4982 17.8954 11.6914L18.5376 12.7618C19.2133 13.8878 19.5511 14.4509 19.3867 14.8996C19.349 15.0025 19.2946 15.0984 19.2258 15.1837C18.9256 15.5556 18.269 15.5556 16.9559 15.5556H3.47192C2.15875 15.5556 1.50217 15.5556 1.20198 15.1837C1.13316 15.0984 1.07882 15.0025 1.04112 14.8996C0.876702 14.4509 1.21451 13.8878 1.89013 12.7618L2.53239 11.6914C2.64831 11.4982 2.70627 11.4016 2.76095 11.3044C3.25149 10.4327 3.5742 9.47663 3.71233 8.48591C3.72772 8.37548 3.74016 8.26352 3.76504 8.03959L4.04482 5.52157Z" fill="white"/>
<path d="M6.88048 16.6666C6.88048 17.1044 6.9667 17.5378 7.13422 17.9423C7.30173 18.3467 7.54726 18.7141 7.85679 19.0237C8.16632 19.3332 8.53379 19.5787 8.9382 19.7462C9.34262 19.9138 9.77608 20 10.2138 20C10.6516 20 11.085 19.9138 11.4894 19.7462C11.8938 19.5787 12.2613 19.3332 12.5708 19.0237C12.8804 18.7141 13.1259 18.3467 13.2934 17.9423C13.4609 17.5378 13.5471 17.1044 13.5471 16.6666L10.2138 16.6666H6.88048Z" fill="white"/>
</g>
<defs>
<clipPath id="clip0_85_56">
<rect width="20" height="20" fill="white"/>
</clipPath>
</defs>
</svg>
