<svg width="20" height="20" viewBox="0 0 20 20" fill="none" xmlns="http://www.w3.org/2000/svg">
<path d="M16.5042 0.15625H3.54297C2.64507 0.157284 1.78425 0.51443 1.14934 1.14934C0.51443 1.78425 0.157284 2.64507 0.15625 3.54297V16.5504C0.157232 17.4235 0.504526 18.2606 1.12194 18.8781C1.73935 19.4955 2.57646 19.8428 3.44961 19.8437H10.0078C11.2998 19.845 12.5794 19.5915 13.7734 19.0976C14.9673 18.6038 16.0521 17.8793 16.9657 16.9657C17.8793 16.0521 18.6038 14.9673 19.0976 13.7734C19.5915 12.5794 19.845 11.2998 19.8437 10.0078V3.49582C19.8427 2.61042 19.4906 1.76158 18.8645 1.13551C18.2384 0.509435 17.3896 0.157263 16.5042 0.15625V0.15625ZM3.44961 18.5937C2.90786 18.5931 2.38848 18.3777 2.00541 17.9946C1.62234 17.6115 1.40686 17.0921 1.40625 16.5504V3.54297C1.40693 2.97648 1.63227 2.4334 2.03283 2.03283C2.4334 1.63227 2.97648 1.40693 3.54297 1.40625H16.5039C17.0579 1.40681 17.5891 1.62713 17.9809 2.01887C18.3727 2.41061 18.5931 2.94178 18.5937 3.49582V10.0078C18.5936 10.4222 18.5638 10.836 18.5045 11.2461H14.5395C13.6663 11.2471 12.8292 11.5944 12.2118 12.2118C11.5944 12.8292 11.2471 13.6663 11.2461 14.5395V14.8069C10.8366 14.8948 10.4189 14.9391 10 14.939C9.22573 14.9411 8.45872 14.7896 7.74338 14.4933C7.02804 14.197 6.37858 13.7618 5.83258 13.2128C5.71537 13.0956 5.5564 13.0297 5.39064 13.0297C5.22488 13.0297 5.0659 13.0956 4.94869 13.2128C4.83148 13.33 4.76563 13.489 4.76562 13.6547C4.76562 13.8205 4.83146 13.9795 4.94867 14.0967C5.61048 14.7621 6.39769 15.2897 7.26476 15.6488C8.13182 16.008 9.0615 16.1916 10 16.189C10.4178 16.1888 10.8347 16.1522 11.2461 16.0796V18.5043C10.836 18.5636 10.4222 18.5935 10.0078 18.5937H3.44961ZM12.4961 18.228V14.5395C12.4967 13.9977 12.7122 13.4783 13.0953 13.0953C13.4783 12.7122 13.9977 12.4967 14.5395 12.4961H18.228C17.8205 13.8507 17.0837 15.0832 16.0834 16.0834C15.0832 17.0837 13.8507 17.8205 12.4961 18.228V18.228Z" fill="black"/>
<path d="M5.39062 10.3294C5.55639 10.3294 5.71536 10.2636 5.83257 10.1463C5.94978 10.0291 6.01562 9.87016 6.01562 9.7044V8.50339C6.01562 8.33763 5.94978 8.17866 5.83257 8.06145C5.71536 7.94424 5.55639 7.87839 5.39062 7.87839C5.22486 7.87839 5.06589 7.94424 4.94868 8.06145C4.83147 8.17866 4.76562 8.33763 4.76562 8.50339V9.7044C4.76562 9.87016 4.83147 10.0291 4.94868 10.1463C5.06589 10.2636 5.22486 10.3294 5.39062 10.3294Z" fill="black"/>
<path d="M14.6094 10.3294C14.7751 10.3294 14.9341 10.2636 15.0513 10.1463C15.1685 10.0291 15.2344 9.87016 15.2344 9.7044V8.50339C15.2344 8.33763 15.1685 8.17866 15.0513 8.06145C14.9341 7.94424 14.7751 7.87839 14.6094 7.87839C14.4436 7.87839 14.2846 7.94424 14.1674 8.06145C14.0502 8.17866 13.9844 8.33763 13.9844 8.50339V9.7044C13.9844 9.87016 14.0502 10.0291 14.1674 10.1463C14.2846 10.2636 14.4436 10.3294 14.6094 10.3294Z" fill="black"/>
</svg>
