<svg width="24" height="24" viewBox="0 0 24 24" fill="none" xmlns="http://www.w3.org/2000/svg">
<g clip-path="url(#clip0_85_57)">
<path d="M3.73159 20.1191C3.5613 20.4149 3.61731 20.7912 3.86983 21.0206C5.55409 22.5505 7.67224 23.6093 10.0169 23.9896C10.0571 23.9959 10.0968 23.9993 10.1361 23.9993C10.5253 23.9993 10.8552 23.6904 10.8649 23.2891C10.8734 22.9363 10.5769 22.6049 10.2295 22.548C8.22855 22.2203 6.36784 21.3214 4.85355 19.9468C4.50836 19.6335 3.96428 19.7148 3.73159 20.1191V20.1191ZM0.363345 12.866C0.812548 12.6059 1.38297 12.8877 1.447 13.4037C1.60628 14.6877 1.99591 15.9184 2.59492 17.0468C2.71127 17.2664 2.70349 17.5311 2.57941 17.7463C2.29394 18.2414 1.57661 18.2283 1.30952 17.7235C0.641313 16.4619 0.190188 15.0668 0.00564141 13.5888C-0.0307336 13.2977 0.109845 13.0127 0.363345 12.866V12.866ZM1.42942 7.08908C1.14784 7.10356 0.900016 7.28014 0.793704 7.54189C0.611266 7.9909 0.455032 8.45319 0.327063 8.92686C0.158407 9.55259 0.834532 10.0685 1.39431 9.74398C1.56105 9.6478 1.68222 9.48894 1.73261 9.30237C1.8437 8.89034 1.97927 8.48572 2.13855 8.09061C2.33786 7.59641 1.96056 7.0617 1.42942 7.08908V7.08908ZM4.00431 4.76722C4.18239 4.75808 4.35058 4.68284 4.47686 4.55661C6.47674 2.55762 9.13277 1.457 11.958 1.45747C14.7672 1.45794 17.4572 2.57534 19.444 4.56669C21.4578 6.58526 22.561 9.27326 22.5459 12.1299C22.5309 14.9481 21.3909 17.6555 19.3882 19.6343C17.8023 21.2006 15.8108 22.2067 13.652 22.553C13.4765 22.5807 13.3253 22.6716 13.2177 22.7998C13.1101 22.9276 13.0461 23.0933 13.0461 23.2711C13.0461 23.72 13.4474 24.062 13.8895 23.9906C19.6218 23.0626 24 18.0801 24 12.0725C24 5.411 18.6171 0.00973261 11.9735 -1.73866e-05C8.65727 -0.00489239 5.64109 1.34797 3.45424 3.53515C2.98736 4.00208 3.34567 4.80106 4.00431 4.76722V4.76722Z" fill="white"/>
<path d="M0.944432 8.09069C0.785151 8.48575 0.649589 8.89042 0.538495 9.30245C0.516229 9.38481 0.479479 9.46127 0.431854 9.52984C0.634448 9.81625 1.03785 9.95078 1.39443 9.74406C1.56117 9.64788 1.68234 9.48902 1.73273 9.30245C1.84382 8.89042 1.97939 8.48575 2.13867 8.09069C2.33793 7.59644 1.96064 7.06178 1.42949 7.08911C1.20149 7.10088 0.995667 7.21891 0.869151 7.40238C1.00054 7.59349 1.04268 7.84694 0.944432 8.09069V8.09069Z" fill="white"/>
<path d="M2.57944 17.7464C2.70351 17.5312 2.71125 17.2664 2.59495 17.0468C1.99594 15.9184 1.60631 14.6878 1.44703 13.4037C1.383 12.8877 0.812577 12.6059 0.363374 12.866C0.268874 12.9207 0.190077 12.9946 0.130264 13.081C0.193827 13.1728 0.237608 13.2816 0.252796 13.4038C0.412077 14.6878 0.801702 15.9185 1.40072 17.0468C1.51706 17.2664 1.50928 17.5312 1.3852 17.7464C1.37526 17.7637 1.36467 17.7801 1.35375 17.7961C1.64845 18.228 2.3084 18.2163 2.57944 17.7464V17.7464Z" fill="white"/>
<path d="M11.9736 1.51164e-05C11.7662 -0.000313009 11.5601 0.00470262 11.3552 0.0148745C17.7311 0.325187 22.8058 5.60462 22.8058 12.0725C22.8058 17.8483 18.7587 22.6758 13.3523 23.8645C13.5016 23.971 13.6913 24.0225 13.8895 23.9905C19.6219 23.0627 24 18.0801 24 12.0725C24 5.41103 18.6171 0.00976512 11.9736 1.51164e-05V1.51164e-05Z" fill="white"/>
<path d="M10.2294 22.548C8.22853 22.2203 6.36783 21.3214 4.85353 19.9469C4.52878 19.6521 4.02806 19.7068 3.77615 20.051C5.26889 21.3667 7.08539 22.2287 9.0352 22.548C9.38269 22.6049 9.67908 22.9363 9.67064 23.2892C9.66487 23.5302 9.54304 23.7373 9.36267 23.8647C9.57862 23.9122 9.79673 23.9539 10.0169 23.9896C10.0571 23.9959 10.0968 23.9993 10.1361 23.9993C10.5253 23.9993 10.8552 23.6904 10.8649 23.2892C10.8734 22.9363 10.5769 22.6049 10.2294 22.548V22.548Z" fill="white"/>
<path d="M17.144 11.2756H13.0624C12.8757 11.2756 12.7244 11.1243 12.7244 10.9376V6.85603C12.7244 6.46599 12.4246 6.13041 12.035 6.11203C11.619 6.09244 11.2756 6.42389 11.2756 6.83555V10.9376C11.2756 11.1243 11.1243 11.2756 10.9376 11.2756H6.85603C6.46599 11.2756 6.13041 11.5753 6.11203 11.9649C6.09244 12.3809 6.42389 12.7243 6.83555 12.7243H10.9376C11.1243 12.7243 11.2756 12.8757 11.2756 13.0623V17.1439C11.2756 17.534 11.5753 17.8695 11.9649 17.8879C12.3809 17.9075 12.7243 17.5761 12.7243 17.1644V13.0624C12.7243 12.8757 12.8757 12.7244 13.0623 12.7244H17.1644C17.576 12.7244 17.9075 12.381 17.8879 11.965C17.8696 11.5754 17.534 11.2756 17.144 11.2756V11.2756Z" fill="white"/>
<path d="M11.7311 6.85605V10.9376C11.7311 11.1243 11.8824 11.2757 12.0691 11.2757H13.0624C12.8757 11.2757 12.7244 11.1243 12.7244 10.9376V6.85605C12.7244 6.46605 12.4246 6.13042 12.035 6.11209C11.8271 6.1023 11.6374 6.1802 11.4996 6.31192C11.6424 6.4495 11.7311 6.64455 11.7311 6.85605V6.85605Z" fill="white"/>
<path d="M11.7311 13.0624V17.1644C11.7311 17.3703 11.6451 17.5562 11.5071 17.6881C11.6277 17.8042 11.7867 17.8796 11.965 17.888C12.3809 17.9076 12.7244 17.5761 12.7244 17.1645V13.0624C12.7244 12.8757 12.8757 12.7244 13.0624 12.7244H12.0691C11.8824 12.7244 11.7311 12.8757 11.7311 13.0624V13.0624Z" fill="white"/>
<path d="M17.144 11.2757H16.1507C16.5407 11.2757 16.8763 11.5754 16.8947 11.965C16.9143 12.3809 16.5828 12.7243 16.1712 12.7243H17.1644C17.5761 12.7243 17.9076 12.3809 17.888 11.965C17.8696 11.5754 17.534 11.2757 17.144 11.2757Z" fill="white"/>
</g>
<defs>
<clipPath id="clip0_85_57">
<rect width="24" height="24" fill="white"/>
</clipPath>
</defs>
</svg>
